<?xml version="1.0" standalone="no"?>
<!DOCTYPE svg PUBLIC "-//W3C//DTD SVG 20010904//EN"
 "http://www.w3.org/TR/2001/REC-SVG-20010904/DTD/svg10.dtd">
<svg version="1.0" xmlns="http://www.w3.org/2000/svg"
 width="700.000000pt" height="700.000000pt" viewBox="0 0 700.000000 700.000000"
 preserveAspectRatio="xMidYMid meet">
<metadata>
Created by potrace 1.14, written by Peter Selinger 2001-2017
</metadata>
<g transform="translate(0.000000,700.000000) scale(0.100000,-0.100000)"
fill="#000000" stroke="none">
<path d="M2468 6995 c-2 -1 -167 -6 -368 -9 -201 -3 -423 -8 -495 -11 -321
-12 -426 -16 -515 -20 -248 -13 -289 -16 -345 -20 -33 -3 -94 -7 -135 -10 -70
-5 -107 -9 -205 -21 -157 -20 -203 -34 -242 -76 -78 -83 -119 -311 -138 -768
-15 -353 -20 -938 -20 -2395 0 -1685 6 -2233 30 -2715 4 -74 8 -162 10 -195 5
-101 22 -289 32 -350 2 -16 6 -45 9 -64 7 -58 34 -152 51 -177 14 -22 58 -40
123 -50 14 -2 34 -6 45 -9 11 -2 54 -7 95 -10 41 -4 85 -8 97 -10 20 -3 83 -8
248 -20 285 -20 669 -35 1355 -52 670 -17 3224 -8 3585 12 33 2 132 6 220 10
88 3 187 8 220 10 33 2 103 6 155 10 52 3 113 8 135 10 103 11 142 15 165 19
14 2 47 7 73 11 59 8 107 27 129 52 43 47 89 211 103 368 4 39 8 81 10 95 3
14 7 66 10 115 3 50 8 119 10 155 20 277 38 1002 61 2510 16 1060 10 2596 -11
2780 -2 19 -7 62 -10 95 -12 134 -45 268 -84 340 -28 52 -98 135 -160 188
-159 135 -297 161 -1021 194 -116 5 -3216 13 -3222 8z m-808 -1350 c14 -2 59
-7 100 -10 41 -3 98 -8 125 -11 28 -2 77 -6 110 -9 33 -3 78 -8 100 -10 22 -3
69 -8 105 -11 36 -4 67 -8 69 -10 1 -1 4 -94 6 -206 2 -112 6 -349 10 -528 15
-814 24 -1378 31 -1945 3 -253 7 -586 9 -740 1 -154 4 -399 5 -545 l2 -265
-429 -3 -430 -2 2 2152 c1 1184 3 2154 3 2156 2 3 138 -7 182 -13z m3315 -9
c114 -22 170 -46 178 -75 7 -27 -73 -132 -225 -296 -20 -22 -46 -51 -58 -65
-66 -76 -353 -374 -748 -775 -288 -292 -420 -433 -606 -647 -104 -120 -196
-248 -196 -273 0 -84 567 -676 1284 -1339 17 -16 60 -57 96 -90 36 -34 99 -92
140 -130 41 -39 107 -99 145 -135 39 -36 130 -122 204 -191 74 -69 166 -155
205 -192 l71 -67 -90 -2 c-49 0 -182 -2 -295 -4 -215 -4 -281 2 -393 36 -155
46 -342 160 -557 338 -30 26 -65 55 -79 66 -48 39 -371 322 -481 421 -473 428
-820 794 -995 1049 -65 94 -85 143 -91 217 -13 189 115 377 620 902 335 350
706 716 885 876 257 228 460 353 611 375 25 4 47 8 49 11 5 5 291 -3 326 -10z"/>
</g>
</svg>
